<mxfile host="app.diagrams.net" modified="2022-04-12T09:12:31.429Z" agent="5.0 (Windows)" etag="AMylMGl5-MwXmV3ON4z9" version="17.4.2" type="github">
  <diagram id="ivt1PxUXB_Szo0lz9Hcm" name="Page-1">
    <mxGraphModel dx="1203" dy="649" grid="1" gridSize="10" guides="1" tooltips="1" connect="1" arrows="1" fold="1" page="1" pageScale="1" pageWidth="850" pageHeight="1100" math="0" shadow="0">
      <root>
        <mxCell id="0" />
        <mxCell id="1" parent="0" />
        <mxCell id="X-5f3nUDe1U66WwUcWv5-1" value="" style="shape=image;verticalLabelPosition=bottom;labelBackgroundColor=default;verticalAlign=top;aspect=fixed;imageAspect=0;image=data:image/png,iVBORw0KGgoAAAANSUhEUgAAAo0AAAEECAYAAABN+g7AAAAgAElEQVR4Xu2dq5rdxtKG2/diG8wzV2DTTXY2MTI1c2CGmAX9j5mJA2MWahSyHbKpcwV+Bti5l/mldRotLWnp1FVdVf0OSTwjdVW/X6n0rdZhPXlofhI/EIAABCAAAQhAAAIQuELgCaaR+oAABCAAAQhAAAIQmCKAaZwixN8hAAEIQAACEIAABBKmkSKAAAQgAAEIQAACEJgkgGmcRMQGEIAABCAAAQhAAAKYRmoAAhCAAAQgAAEIQGCSAKZxEhEbQAACEIAABCAAAQhgGqkBCEAAAhCAAAQgAIFJApjGSURsAAEIQAACEIAABCCAaaQGIAABCEAAAhCAAAQmCWAaJxGxAQQgAAEIQAACEIAAppEaUCPw5MkTtVgEggAEIBCNAN/6G01Rf/PBNPrTzG3GrWmk6bmVj8QhAIGCBOifBeET+kQA00gxqBGg6amhJhAEIBCMAP0zmKBOp4NpdCqcx7Rpeh5VI2cIQMACAfqnBRXIAdNIDagRoOmpoSYQBCAQjAD9M5igTqeDaXQqnMe0aXoeVSNnCEDAAgH6pwUVyAHTSA2oEaDpqaEmEAQgEIwA/TOYoE6ng2l0KpzHtGl6HlUjZwhAwAIB+qcFFcgB00gNqBGg6amhJhAEIBCMAP0zmKBOp4NpdCqcx7Rpeh5VI2cIQMACAfqnBRXIAdNIDagRoOmpoSYQBCAQjAD9M5igTqeDaXQqnMe0aXoeVSNnCEDAAgH6pwUVyAHTSA2oEaDpqaEmEAQgEIwA/TOYoE6ng2l0KpzHtGl6HlUjZwhAwAIB+qcFFcgB00gNqBGg6amhJhAEIBCMAP0zmKBOp4NpdCqcx7Rpeh5VI2cIQMACAfqnBRXIAdNIDagRoOnlQd1y3PLz8PCwZXf2rZAANVdedPpneQ3IICVMI1WgRoCmN416zsl5q+nTiDE9U7awQkCjHjRiWOEplQf9U4os4y4hgGlcQottNxGg6T3iGzuJbjWEmwTq7Gw9v1zzrGkc65paz690rdA/SytA/JYAppE6UCNQc9PrnxCtmMOl4keZx9J5e9w+ilZR5rG1hmrun1vZsX8+ApjGfCwZaYJATU2vlhNdLfP0cHDXokUt8+zXXE3908PxVmuOmMZalS8w7+hNr3sy87qSuLUsYLCV4LL94d1cLus8GBb5uIveP5dVPluXIoBpLEW+wrgRm14tJ6w15QqbNdSm94HrOKPIbCL2z+lqZwtrBDCN1hQJnE+kpnc8OUVe2chZivDaThOGyxhG4xWpfy5Tkq0tEcA0WlIjeC4Rml60E5F2ycFvOXGYLWfW3SMKvwj9c5uS7G2BAKbRggqV5OC56UU58VgpNXhOKwGjaUZLtvDO03P/XKIT29omgGm0rU+o7Dw2Pe8nGusFBN9LhWAiW7Ve+Xrsn7JKMnoJApjGEtQrjemp6Xk9sXgtLXg/PgXMfbI6Veyt5jz1Tx0FiVKCAKaxBPVKY3poet5OJNFKqUb+Nc7ZUt164e+hf1rSlVxkCGAaZbgy6gAB603Pen41FVUtWtQyTw+1a10L6/l50JgctxPANG5nyAgzCVhtel5WGmZiDrNZZF0iz81zAVrWxWr/9Kw3uS8ngGlczow9VhKw2PQs5rQSb9jdomkUbT4RC8+iRhZziqg9c7pOANNIhagRsNb0rOWjJoTDQFG0ijIPhyW0OGVrWlnLZzFQdghBANMYQkYfk7DS9CxfgvKhZJksPevmOfcyatuIakk3K/3ThjJkUYoAprEU+QrjWmh6FnKoUPqsU/amobd8s4oVZDALGlrIIYicTGMDAUzjBnjsuoxA6aZXOv4yWmx9jYAXLb3kSbVNEyitZen404TYogYCmMYaVDYyx9JNr3R8IzKESMOLll7yDFEUwpMorWXp+MJ4Gd4JAUyjE6EipFmy6ZWMHUE7i3Owrqn1/Cxqaj2nkpqWjG1dF/LTI4Bp1GNdfaRSTa9U3OoFVwBgVVureSlIEj5EKW1LxQ0vKBNcRADTuAgXG28hUKLplYi5hRH7LidgTWNr+Swnyh5TBEpoXCLmFAf+Xh8BTGN9mhebsXbT045XDCyBkxWtreRBScgT0NZaO548QSJ4JIBp9Kia05w1m55mLKdyhEu7tOal44cT1MGENDXXjOUAPSkWIoBpLAS+xrCaTU8zVo1aWpxzac1Lx7eoSfScNDXXjBVdN+a3ngCmcT079lxIQKvpacU5Tf+f39LLZ3fp7x6Pt18e0u//XgiJzTcRUNf+kG2puJtgsXMWAlraa8XJAoVBwhLANIaV1t7EtJqeVpxz03iffn34PZ084s5Ifk6vf3xNvzy1p0XUjNS1xzRGLaXZ89KqOa04syfOhlUSwDRWKXuZSWs0PY0YF/R2BrFnGtM/6beXb1L6o2sa/0o/P/kpfdoN8DZ9aU1mu++b+3Tb/PbT31d+lwb23cV4lu5/Paxo9o3qXz+nJ+9v0o+vv6RL39od70X6eGZuh2K1Obe//zPdfPyW7u7addXH/f76+Un681Unj93Uh+LK1552DWjHkydIhKUENGpAI8bSebN9fQQwjfVpXmzGGk1PI8Ys07gzg+fGqTVW729+pK/t0uPR0P2R0pvm0vZt91L24XJ393eD+zamrHGN6U36YzfmP83/P2vM3PGyePvv49/Oc+6ZzZ65HIv19GhcX3zcG9F2v5/S3vw2///y+7vT3E7/X6DatGtAO14BpIScIKBRAxoxEBoCUwQwjVOE+Hs2AtJNT3r8URAj9zSmo7na7bhfpXt1uoTd/vt9uvnf6/T5X0OXtru/G9m3XR1Mj+b0x88v0/eb23R3/yo9/P5sYKXzMIPBldHj7K7EerpfgWxc4uFeze5qavO3l9/Tu8ZM7vJ4V/ayvFYtaMXJdhAykBgB6VqQHl8MDAOHIoBpDCWn7clINz3p8a+bxqHL0/1Lx91tDobr/2aYxguT1zNrOzP6Kv3Z/vfHTXq/u1R++Hf3PsvjBAZWQU9zm4zVGN3OpezHy9LHnH5N92/25rHkrZxataAVx/aRTXYtAelakB4fFSEwhwCmcQ4ltslCQLrpSY+/zDS2V6A79/lJrTTurnQ3cW4+pm/3z9PX4wrj6+OK48Dj25tWGrum8fy+zfZy+If72/Tt5nCZOkvVrBtEqxa04qyjwF6aBKRrQXp8TVbE8ksA0+hXO3eZSzc96fGXmcbD5efeqtzwPY1Tl6f3xvBi3+Nq3u7ewk/N1fD9/ZL9exsv8x56gOYxh8l7Gt9+aS5/N2a0/6CNoSfGtWpBPI671zkNPQBWsFVd/YCUNy/pWpAePy8NRotKANMYVVmD85JuetLjXzeNc97TOPL0dP/J68ET3dgTzU1WQ09NHx9QGU167dPT79sHv9OnT+dPT+/DtIbhQ3r+tfPqoUJ1qFUL4nGGasGQOS8k7/ywmMb5rNgSAjMIYBpnQGKTPAQkT7CSY+eZfYRRLldPz2bVnqA/tJfIbbzRXLompMff+/A5r3Ma+UBR5HVOC1411f2w1J9nP/f2Xt3mbQSvb+/S3f6dVae3BDxyevzgdnqxvqJpbPOQrAnJsSN0J+agQwDTqMOZKDTUADUwbhr3l8RT732PZacsfZKVHn/UNPYeZBq9nWDg1U17E3r+iqf8r3M6fz/p+KumOrdlDJnGbp6HvJsCO39l1e4WjV5ddsfCNJY9CIkejgCmMZykdickeZKVHNsuUTK7RkC6JqTHH1pBO8339DqnidcxTd76kPl1ThcvtZ/5qqlB0zhlKvtvLDjS6cTENNIkIJCVAKYxK04GK3USVzmBI68rAtI1IT3+6Epj95uAnvUvX3cuD7fv8JwyjZOvWFr4Oqe+aRwbv/+qqQymsV3RbJ4HO/x0vl3p4tua5MpYsiYkx5YjwsjRCGAaoylqeD6STU9y7HJI9085t9/Yd3wyupvL+St9cmRp7MnXjVOSrgnp8cdNY/d1ToIrjWte51RkpbH30nkuT288ctgdAuMEMI1UhxoByZOs5NhqgPqBJi6tYRqvKyNdE9Ljj5vG83v4rt/TWOJ1TjPuafz6PH1ovxHp8Eqq/T2xt/uvpGwnvmTlcXDbz+n18RuTWGks1sIIHI8ApjGepmZnJH2SlR5fDuzQ06/XXomzz2RnGpv333z6tL8md3pidP/X3Vf+Hf7yeDK++rfuSuNhlTMdvmdabvIiI2vVgnicWe9pvPL09NTl6alaWfw6p5lPT+984f670tufFx8/ptu7+8ev2VxiGntjpRdv26MiNV+LlH6/uHwvUm67QaVrQXp8OTKMHIkApjGSmsbnIt30pMeXwrtopaiTxO4erm8HU9c7yV57Gfj43x5P+M8/dF4mLjVxwXG1akErjiCqzENPvJYpczRLw0nXgvT4lliSi10CmEa72oTLTLrpSY8vI8jCe9J6pvHPV81qyuG1iI+Xq6+M+fTa3/am8XNqVn9eH15tIjNp8VG1akErjjiwDAFOK4enJ7szDOpoCOlakB7fEWpSLUgA01gQfm2hpZue9Pgiel17enXo6dcz0/gyfX/3NTXfHLj7OZnGRU/UXl6S/vy6uVT4OaV3x68pFJm47KBataAVR5YWo+cgIF0L0uPnYMAY8QlgGuNrbGaG0k1PenwZkLlWGrvfJ71tpTH98TX9578v05v0x/5Fyg5/tGpBK45DCapLWboWpMevTjAmvIoApnEVNnZaQ0Cj6WnEWDP3a/tsuqcxfUkP7fXpzPc0/vLU7+t3tGtAO17u+mO87QQ0akAjxnYSjBCdAKYxusKG5qfR9DRi5Ee64OnXTvDzp6df9L7Cb+vT000g5W/TyMVVuwa04+XixDj5CGjUgEaMfEQYKSoBTGNUZQ3OS6vpacUxiLj6lEppXypu9YIbAKClvVYcA0hJwTABTKNhcaKlptX0tOJE0yfCfEppXypuBM28z0FLe6043vUgf1kCmEZZvozeIaDZ9DRjIbINAqU1Lx3fhgp1ZaGpuWasulRktksIYBqX0GLbTQQ0m55mrE1Q2DkbgdKal46fDSQDzSagqblmrNkA2LA6ApjG6iQvN2HtpqcdrxxZIlvR2koeVIQ8AW2ttePJEySCRwKYRo+qOc25RNMrEdOpPG7TtqaxtXzcCms48RIal4hpWAJSK0QA01gIfI1hSzW9UnFr1Fh7zla1tZqXtj4R45XStlTciBoyp/UEMI3r2bHnQgIlmt4xZonYC/Gw+UIC1jW1nt9C3GzeECjZT6gnStACAUyjBRUqyUGr6bVxjj8PDw+n/9eKX4mcRafpRUsveRYV00nwvpZjfUZqOtSSFFnGXUIA07iEFttuIiDV9LrNu02waxS7CUvF3wSFnVcR8KKllzxXiVDZTte0nNuDtiCjlrbQY99cBDCNuUgyziSBnE1v7af8nDlMTpgNRAh409BbviKiOR90qYZr+9M1TEtzcI6c9I0SwDQaFSZiWlubXq5GfBxnbEUyIvsIc/Ksm+fcI9TO2jnk0C1n36JnrVWS/XIRwDTmIsk4kwTWmMZcDXcouTX5TE6SDUQIRNEqyjxERDY2qIRWW/qZRD7GkJOOAwKYRgciRUlxTtPTuDeoy3NOTlH4e51HNI2izcdrXZW+FLy011E3ESvN35wwjf40c5vxWNPb8uk7B4wcl6By5MEY5wQi6xJ5bp7ruKQuU30Q0+i5suLkjmmMo6X5mXSb3lSDLDEZmnIJ6sMxa9GilnnaqazxTCxpMdQfLeXnQU9ylCGAaZThyqgDBCwaxX6aJVcaKJr9y5Pbn5pu+K9xzpZq3Tr/pZexLbEll3gEMI3xNDU1I68Nz/qJxJTIGZKBd52GOUPprB7CW80dVxo9fPheLQo7mieAaTQvka8Er5lEj5dXvJ1YfFULRmlIL2pOtoq98h3qnxhI2Vph9EsCmEaqYjOBuY3Lo2k8wvF6otksrtAA8JwGC6NpRku28M5zqn/O7cNLmLEtBPoEzJrG/opVm3hN9zlZL9U1DWqq6Vmfc5uf9xNPacbwW64AzJYz6+4Rhd+S/un1tqBtStvfO4KvMWkaxw6OJQeN/fLxl+Eao9hv3lGMf5QTkVYVwms7aRguYxiN15bz39bevYw8Ww8RiOJrzJnGqQNj6u+Uaz4CuT+tRtSOZjxeb7DJdywOrZxx9eWSb+Say9U/IzOSOeK2jzql3dTft2eQbwRTpnEuuLnb5cNUz0iSDSW6bpLsvFQgDHSVgvfjLSPRTbRE/6R+5I/XubrN3U4+4+sRMI2lFTAQX6txeDkockiSe5U2R04SY9QyTwl2ucesRYta5tmvD+n+WSvX3MfhWt2k9c01TzOmcSmwpdvnAhZlHC2j2L+sFuWexqV1EKUhR5nHUv08bh9Fqyjz2FpD2ue8EueIrYys7b9Us6Xbl5gvprEE9QIxLTReDweEljR9PY5xrZhq6/lp6RQpjnVNredXuhZK9k8M5Dr1l2q2dPt1WW3bC9O4jZ/pva0d6B4OiNKCjp04u3ltNZYaMUpzJP58Ahr1oBFj/ox9bmmlf1o7r1hWc6lmS7cvMXczprGd/Fxgc7crAbR0TMsHNLrlqY45J+BrkbaazjyzYBRPBKi58mpZ7J8WrmCVV+Z6BnN1m7td6fliGksrkCG+ZaPYnZ6XgyKDJAwBAQhAICsBD/3Ty7koqzATg83Vbe52mrkPxTJlGuesNnoBKyms1093aCdZFYwNAQhEJuCtf2IgH6txSrupv1uqa3Om8Zpx9AQ2t8gRDsCa9ctdD4wHAQjURcBz/4xw/tpabWP6edPVpGk8Gse+SLXdixXtQPN2cGxtEuwPAQhAIBeBKP3T65WyHDoO3RvszdeYNY1HgaIcKHMLLppR7M67Ni3nas52EIAABKYIRO2fkc95Y5p61hLTOHWkCv+9pk9dng8U4TJgeAhAAAJXCdTQP2sxkJ61xDQWaFS1HBh9tJ4PlAJlQkgIQAACJwK19c/ICyqetcQ0KjWlWo0il6eVCowwEIBAaAKejUYOYSKdQz1riWnMUc0jY0Qq8hyYPB8oOebPGBCAAATWEqB/PpLzfm71rCWmce0RjFFcTM7zgbJ4suwAAQhAICMB+ucwTI8G0rOWmMaNB3Xk+y42ornY3fOBkpsF40EAAhBYQoD+OU3Ly/nYs5aYxuk6HDQ/x196e8fSiulm28XzgZINAgNBAAIQWEGA/rkcmtVVSM9aYhpn1qHV4puZvonNPB8oJgCSBAQgUC0B+uc26S2dwz1rKW4a+8vF22Rft/fa1UBLRbZu5rb28nyg2CJJNhCAQG0E6J/5FN96bvfsa7ZSFDeNmxN88iStNX1LY3u5H2LpvKxsT9OzogR5QAAC3gjQP2UUK3He96xl9aZx6ycOmTKOOarnAyWmIswKAhDwQoD+qaOUhifwrGW1pvFYGFqrmDrlbjuK5wPFNlmygwAEohOgf+orLOUTPGtZrWnULz8iej5QUA8CEIBASQL0z5L088b2rCWmMW8tMNoVAp4PFISFAAQgUJIA/bMk/byxPWuJacxbC4yGaaQGIAABCGQn4NloZIfhfEDPWmIanRefp/Q9HyieOJMrBCAQjwD9M46mnrXENMapQ/Mz8XygmIdLghCAQGgC9M848nrWEtMYpw7Nz8TzgWIeLglCAAKhCdA/48jrWUtMY5w6ND8TzweKebgkCAEIhCZA/4wjr2ctMY1x6tD8TDwfKObhkiAEIBCaAP0zjryetcQ0xqlD8zPxfKCYh0uCEIBAaAL0zzjyetYS0xinDs3PxPOBYh4uCUIAAqEJ0D/jyOtZS0xjnDo0PxPPB4p5uCQIAQiEJkD/jCOvZy0xjXHq0PxMPB8o5uGSIAQgEJoA/TOOvJ61rNY0tqK1Pw8PD3Eq0fhMPB8oxtGSHgQgEJwA/VNfYCmf4FnLak3jsfyORXH8NyZS7sD0fKDIUWFkCEAAAtME6J/TjLZuoeUHPGtZvWnsF1m3aDCQWw/B8/09Hyh5STAaBCAAgWUE6J/LeM3dusQ537OWmMYrlVWimOYWusftPB8oHnmTMwQgEIcA/TOPllqridey9awlpnFmHVootJmpmt3M84FiFiqJQQACVRCgf66X2doCkGctMY0r69BaEa6chupung8UVVAEgwAEINAjQP9cVhKWz9GetTRvGpeVSZmtWYWcx93zgTJvhmwFAQhAQIYA/fM6V87DMnXXH9W0aTweJN4OFsufcHTKajiKNx1LsiI2BCAAgS4B+udlPXg813r1NUf6Zk1j/wDxesDw6efxQPeqIacuCEAAAqUJ0D9T8n4+jeBrTJrGsYMjwkHj8ZNRrmYZQb9cLBgHAhCAwBICtfbPKOfMKL7GnGmcOjCm/r7kICy9bZSDYS7HSNrNnTPbQQACEMhBoJb+6X01cUjrKe2m/p6jfnKN4c40thP3BHiuUBEPlP7cI+o2V1+2gwAEILCFQOT+GX0BZY52c7bZUj+59jVlGpdAW7JtLlia40Q8iKJrplkfxIIABOoiEKl/1rBIcqzOJbot2bZU9ZsxjWtgrdmnFOgtcaMcYLXotUVr9oUABCCw5hKndWoRF0KmmK85563ZZyqPnH83YRq3QNqyb06QmmN5Pfhq1EqzLogFAQjEJeCxf3o9V+Wooi16bdk3R+7XxihuGrfC2bq/NGDp8T0dlLVrJV0LjA8BCMQl4KF/RrkqtrWKtmq1df+t+Zs1jbnA5BpHErTG2NYPWHTKUwV9nZeO+vDwsHQXtq+cADVXvgCs9k9PCxcaKubSKdc4uedcbKUxN5Dc4+UGXWI8awczGk1XwZyT81bTpxFjeqZsYYWARj1oxLDCUyoPK/3T+uKEFP854+bWKPd4c+YwtU0R0ygFQmrcKYge/m7hQEefx0oZO4luNYS5atF6frnmWdM41jW1nl/pWinZP60tQJTWYii+lD5S465lqG4apQFIj78WtLX9SjSBmrWxYNpz1GCUeeRgYX2MKFpFmcfWetHsnzBfppa0NtLjL5ltONPYTt4S4CVilNpWq0HUpIsW01I1c4xbyzxLc54TvxYtaplnX3Pp/lliIWFOXXvYRlobS75G1TRqgO2ezKxc6vNQ9N0cpZqHpv4lmEtxKzGXtTFhsJbcuv3gvV8kOP5E7vm5+2et5nvdkTa+V25druWnGWssDzXTWGKyJWLmLsjS4+VsyBH1yMmntNa548MmN9H9eHC9fgKPaiBz9E9qJ+8xmUOTpRmViHm2qNR8MhN//0bJSZaMvbQYrG+/9ZNpJC2OLBQOH+tlMSs/eM3CdHUjGC5jGI3X2v6JUVxWN3O3XqvH3PGtrjiKrzSWBHuEbiGHHIVibYylzSiCDtFORNo1Bb/lxGG2nNnZysjh8rX3D3hz++fWD/fbaNex91wtJGmUykHcNEpCY2w7BOY0qlJFnoMSJ+4cFB/HgOc0TxhNM1qyhXee1/rn0g/wS7ixLQTOPoRpXJ4GeX0EhpqYR9Po/URjvfLge6kQTGSr1ivfbv+c8yFdliKj10qAlcZalVect8dPwV5PLIqyZg0F78cHXLxfRs1aGIKDeas5j31UUD6GLkQA01gIfI1h+5+OWwbWTpDeTiTR6qhG/jXO2VLdWuXvoV9a0pFcdAhgGnU4E6UhMHR52tKnZ4+Xz6MWVi1a1DJPD3VqQYtr/dBCfh50JEdZAphGWb6M3iEw1fRK3adjdaWh9uKJrEvkuXmuW21dlvS8qf7pmTu5+yGAafSjlftMlzY9jVXIpTm5F8HhBKJpFG0+DktqMmVJjdb2NcmcJoGwAQQOBJ48/Pj48PLZXfq7h+Ttl4f0+7+3cPon/fbyTUp/fE2/PO2N889vSSbmlnzZV5rAlqa35BP53HlsyWduDLbLQyCKVlHmkUdV26Pk1GqtUewSypmPbfIrs9v5ivv068PvaZN1WRn+YrdjPj9u0nsRj5Ur0WXjHExjD/Rusp/T6x8Dhm/2+FOmUSLm7OTYsACBnE1vSxPWvgRVAHXIkJ5185x7yGKaOam1uvEhdybgnJuZNo1x/M6waUxDhu+v9POTn9Knnchv05eTmx/7fXeM9v+fpbv0Mf34+kt6OijuzJjtvm/u022Tyae/D3kM/S4N5bXP4/7Xwypq3xz/9XN68v5mn+NungNjDMbKWflxx8ppGvufwI//nnoaWyqHuKrZm5k3Db3la0/x8hnN0XDLB9k5M5yTw5xxwm5z4StGvEl/u+6/R/1FSq9v79Ld3gClsyuxvSunp7+drTT2V0Bn+p02WD+nduWy74HG/MrOy831PFd4deKNrzTuriwfzVNjn35+kt7f/Ehf22vNHXP1Y+T3TzvG8/mHzr5HCP1l5B2YGTH/SOlNs9R72718fhCt+7uxfBuC6U36YzePf5r/f3b396kA2n8f/7azjJ257ba9/zU9vPu+u7R+Fj/sUZh3YhpN79onfI34eYkx2hgBL1p6yZNKmybQ11JiNfFaFtTShEY9MzjmAS4WrfqmccRfpI+X/ufpbmHpfbo5XpW9GKsxi7vL0wMrjXP8zmmRreM5BvxO3690PdpczzPod9p7FHvxRu9pTC8Oq4InB/tnenW2utiC+jXdPxv6fXtZe++kP7d3S74+wD5qPnJP46yY/3udPv9raKm3+7tWyJG80qM5/fHzy/T95jbd3b9KD78/692D2SuGXXE0Yw4VwHS/YYuGQImm141ZIj7CyxDwoqWXPGVUijVq6V5CLS0xjRMeoGvihoxe977IayuTFyl14k7c0zjL77RmtPUsY/me4m/1PCN+p+XQm/+Vy9P9Jc2uKTssrf5f38BdXpL+/Ppjuv2c0rvOquXeuQ4t166JeVi+vQq1m9cR7qv055kJPPx78LL7UZkX6eOQaY3VG8VmU7LplYwtBrTyga1raj2/ystn1fRLaloy9ipY2jtdNX8dD3DNhA15kxmmsV2l++lw6fp0+97k5ekZfqd9kHiOabzIe6nn6V6a7vidAUC6VhoAABAQSURBVNM6Yhr3l2b/fHV8gnrMxU6vNLZPT//nv+eXfYdN48yYW1cad1fXm7ndfEzf7p+nr8cVxtfHFcfjc1f9OR9AWrvZVvvA3BCvVNMrFXcDKnadScCqtlbzmomVza4QKKVtqbhuiuHs3Ky10rg3W81DHvu3zcy9PN1sOs9jzTSNxyuhF1eD9w8zT3ueEb/Tij9vpbG/VLntnsbjperT63cGjdfMmLt7GqcuT4/nu3vApb0ns/lY8OJwj0L/3sbjQTJ4T8RQfDdHVdlESzS9EjHLUq4vujWNreVTX0XIz7iExiViypPcEqHnGXoPso7e09i7D3F//r/dP9y7dKVxcBXy8OaZ4wrh4C1tM/3O0IPDIwtX4/Od53nm3gO64D2NW56eHnLgc94NOfL08gzTOPjk87E+d9A7rxTamcj2w0L//U7d+M2l6aH7C7bUfGX7ajc97XiVyWlqula0tpKHKXGCJqOttXY8F7IdFoD2uR7O0af3Qo95lnbxbP8Q7G6vj80tdHf3+2c2lprGnbV5HCu9eNu8W6a5Tt2+oeXZ4Ta82e9pXPG095lI4/PdrxZOeZ4Bv9OyvFhpnHpHiYvKIUkPBDSbnmYsD+xryLG05qXj16CxtTlqaq4Zyxpn8rFDgK8RtKNF+Ew0m55mrJ1wY28EOHun6RWJuVd2c/2ra97LuHT8zQAZYDEBTc01Yy0GwQ7VEMA0ViN1+YlqNT2tOGdER0zf7tLF59edF8aP6IBpzFKgRbRvMi8VNws0BtlEQEt7rTibYLBzeAKYxvAS25mgVtPTijPHNF6+KWDovpMZ9+72n8ob/FakK99acFEGI/evDH6TUrvz/um6m4/f0t3uXqDH+4fOngJs8+y9tFazAotoj2nUlNhcLK2a04pjDjAJmSKAaTQlR+xkNJqeRoxBlWauNF5/637nrQDX3g3We0P/Lp/D74a/taCfce+rpWZ9w9PBZB5f+t99eKz5/5ff352+Ler0/4XKWbsGtOMVwkrYKwQ0akAjBiJDYIoApnGKEH/PRkCj6WnEGDeNl28EuHzrf+crp7rv1pp6gezVF9ceTeMV09lNevRS+JV3mz3tvY/s7Pvpm7+9/L57gf/uW5be7d8NVupHuwa045XiStxxAho1oBEDjSEwRQDTOEWIv2cjIN30pMe/CqJvxHYrcd/2r2kafAXEcbSRVzlNrjROvKv02j2SY5eQJ79VoGt4uy+nPX77QPOy/zd781jQM+7AatWCVpxsByEDiRGQrgXp8cXAMHAoApjGUHLanox005Mef5Fp3C3+dV4au9t5/lv3L+6FNLHS2DWN3a+p2s/1w/1t+nZzuExduBS1akErTmGchJ9BQLoWpMefMUU2gUDCNFIEagSkm570+EtNY2Ol0m8vn6W72y/pYfcdU1e+qehile/8GwM2fWvBReK9exo7sZunXdL7mx+n+xOfvL85PPl9uKfx7WEuvW9fuHh5rFpVDQfSqgWVOG5e53T+QaJwCVy8lFg6H+lakB5fmg/jxyCAaYyho4tZSDc96fGXm8bdcmPzJv67dHpA5ezp5O43GBwM5t9vT99MlPNbCy5zX/P09PvUvHYyffp0/vT0fuw2/w/p+df+tyqVKU2tWlCJM/Mhq1HStb7OSXne0rUgPX6ZI5Wo3ghgGr0p5jhf6aYnPb5j9BlSv/yu1LNB2xP0h+fp62FFNUPATUNo1YJKnDHzM7g6/VP7JWbNz/HDh+brnIZWGld8Ndruntv7dNvM5FP7Iar9GrbmNU6vb+/S3X5y6e2X5mva9ov3Fy/WP/0N07jpGGJnCAwRwDRSF2oEJE+wkmOrATIdaNw07ldE28XUsk9N9/FJ14T0+Kf5zFxpLP86p0vT2M0pdW9pmHzQ6y7dHo3h1ddJ9epy6t5f4WNMsiYkxxbGwvCBCGAaA4lpfSqSTU9ybOtcyW+YgHRNSI9/bho9vM6pbxqvvMIptbdtjLwiasnrpy6k78RUXmlsU5GsCcmx6SEQmEsA0ziXFNttJiDZ9CTH3jxxBihCQLompMcfXWk0+zqnnmm89gqnzKaxXdH86XDp+nRpHtNY5LgjaGwCmMbY+pqaneRJVnJsUxBJZjYB6ZqQHv/a5Wmbr3MqsdLYe+k8l6dnHx9sCIE1BDCNa6ixzyoCkidZybFXTTbLTscnqptvev54eA1OZ9yz73zOFm/3xdFFv9Ely1SELxW2OarV3OCKmcXXOS24p3H3FoHH935efaXU5P2P/cvcn9Pr9v7a/mpmrsK6Mo5kTUiOrYCGEEEIYBqDCOlhGpJNT3LsYmwnLq9hGq8rI10T0uNfW2nc/c3c65wWPD29S799gKp9fVP7oehjur27T68emlc2LbynsTtOevG2eW68uU79a/N09bPefZMKB7JkTUiOrYCGEEEIYBqDCOlhGtJNT3p8OcZDryUZe4/iYxY709ieIj8dXrLSfQ3J2fsgH9/9uN975DUoZ98nfVjJSh8PL/eWm73EyFq1oBVHglH+MSdey5Q/oKkRpWtBenxTMEnGLAFMo1lp4iUm3fSkx5dSZPZrSXoJ7G7+/3Ywdb3VmdExW8s4+q0vjytFzz90vhlGauKC42rVglYcQVRZhj6t9r3w+SEjBwTpWpAePwcDxohPANMYX2MzM5RuetLjy4Bc8FqSAdP456vHlxw/Xq6+MubTa3/bm8bPqblk+PryHkqZ+cuMqlULWnFkKDFqTgLStSA9fk4WjBWXAKYxrrbmZibd9KTHFwG65LUkF6bxZfr+7vGhlZNpvLiXq3Ov2cXDAd370PaXpD+/bu4v+5zSu6+/pKcik5YfVKsWtOLIEyPCVgLStSA9/tb5s38dBDCNdehsYpbSTU96fBmIuVYa94bvvn0A4N/bVhrbp6f/89+X6U36I339xadt1KoFrTgytceoOQlI14L0+DlZMFZcApjGuNqam5lG09OIkRvspnsa05f00H4Jb+Z7Gn95OvQkbO6Zy4ynXQPa8WSoMeoWAho1oBFjCwP2rYMAprEOnU3MUqPpacTID3PkaeY5r9w5PT39ovfdz2NPSLfZz3l6utmswDdq5GCrXQPa8XIwYoy8BDRqQCNGXiqMFpEApjGiqkbnpNX0tOIYxVx1WqW0LxW3arGNTF5Le604RrCShlECmEajwkRMS6vpacWJqJH3OZXSvlRc73pFyF9Le604ETRhDnIEMI1ybBm5R0Cz6WnGQmgbBEprXjq+DRXqykJTc81YdanIbJcQwDQuocW2mwhoNj3NWJugsHM2AqU1Lx0/G0gGmk1AU3PNWLMBsGF1BDCN1UlebsLaTU87XjmyRLaitZU8qAh5Atpaa8eTJ0gEjwQwjR5Vc5pziaZXIqZTedymbU1ja/m4FdZw4iU0LhHTsASkVogAprEQ+BrDlmp6peLWqLH2nK1qazUvbX0ixiulbam4ETVkTusJYBrXs2PPhQRKNr2SsRdiYvOZBKxraj2/mZjZrEOgpKYlY1MEEDgSwDRSC2oESje90vHVQFcQyIuWXvKsoGQ2T7G0lqXjbwbIACEIYBpDyOhjEqWbXun4PlTykaUXLb3k6UP1slmW1rJ0/LL0iW6FAKbRihIV5GGh6VnIoQKpRafoTUNv+YqK53RwCxpayMGpfKSdkQCmMSNMhrpOwErTa/Nofx4eHpDMEQHPunnO3VGJZE/Vkm5W+md2yAzoigCm0ZVcvpO11vSs5eNbXdnso2gVZR6yatsY3ZpW1vKxoRJZaBPANGoTrziexaZnMaeKS2Rw6tE0ijafiPVqUSOLOUXUnjlNXDFsLtFxjY4qUSFgtelZugSlIoSTIJF1iTw3J+U1+gHF6q0rVvunZ73JfTkBVhqXM2OPlQSsNz3r+a3E7nK3WrSoZZ4eitC6Ftbz86AxOW4ngGnczpARZhLw0PRYAZopptBmNfKvcc5C5bNqWC/8PfTPVQKwkysCmEZXcvlO1lPT83Ii8V0Rj9nDOyUY6FazN96e+qeukkTTJIBp1KRdeSyPTc/bicVbicH3UjGYyFaxV74e+6eskoxeggCmsQT1SmN6bnpeTzRWSw2e08rAaJrRki288/TcP5foxLa2CWAabesTKrsITc/7iad0QcFvuQIwW86su0cUfhH65zYl2dsCAUyjBRUqySFS04tyItIqPXhtJw3DZQyj8YrUP5cpydaWCGAaLakRPJeITe94Ymql45Wn5wUMG5kDGq7jXCOzidg/ZY4QRpUkgGmUpMvYZwSiN73IJ6y5pQyDuaTybAfvx6fOo39wi94/8xwRjCJNANMoTZjxTwRqanrdk3nkk1kt8/RwGNeiRS3z7NdcTf3Tw/FWa46YxlqVLzDvmptelBNdlHkUKH/1kFG0ijKPrQVQc//cyo798xHANOZjyUgTBGh6j4D6J8LjX6zcF2k9Pw625QSsa2o9v+XE8+5B/8zLk9HWEcA0ruPGXisI0PSmoY2dOLt7bjWWGjGmZ8oWVgho1INGDCs8pfKgf0qRZdwlBDCNS2ix7SYCNL1N+E47zzkBX4u01XTmmQWjeCJAzZVXi/5ZXgMyaB48a04gD4CAgAYBmp4GZWJAAAIRCdA/I6rqb06YRn+auc2YpudWOhKHAAQKE6B/FhaA8DsCmEYKQY0ATU8NNYEgAIFgBOifwQR1Oh1Mo1PhPKZN0/OoGjlDAAIWCNA/LahADphGakCNAE1PDTWBIACBYATon8EEdTodTKNT4TymTdPzqBo5QwACFgjQPy2oQA6YRmpAjQBNTw01gSAAgWAE6J/BBHU6HUyjU+E8pk3T86gaOUMAAhYI0D8tqEAOmEZqQI0ATU8NNYEgAIFgBOifwQR1Oh1Mo1PhPKZN0/OoGjlDAAIWCNA/LahADphGakCNAE1PDTWBIACBYATon8EEdTodTKNT4TymTdPzqBo5QwACFgjQPy2oQA6YRmpAjQBNTw01gSAAgWAE6J/BBHU6HUyjU+E8pk3T86gaOUMAAhYI0D8tqEAOmEZqQI0ATU8NNYEgAIFgBOifwQR1Oh1Mo1PhPKZN0/OoGjlDAAIWCNA/LahADphGakCNAE1PDTWBIACBYATon8EEdTodTKNT4TymTdPzqBo5QwACFgjQPy2oQA6YRmpAjQBNTw01gSAAgWAE6J/BBHU6HUyjU+E8pk3T86gaOUMAAhYI0D8tqEAOmEZqQI0ATU8NNYEgAIFgBOifwQR1Oh1Mo1PhPKbdNj1+IAABCEBgHYGHh4d1O7IXBDIRwDRmAskwEIAABCAAAQhAIDIBTGNkdZkbBCAAAQhAAAIQyEQA05gJJMNAAAIQgAAEIACByAQwjZHVZW4QgAAEIAABCEAgEwFMYyaQDAMBCEAAAhCAAAQiE8A0RlaXuUEAAhCAAAQgAIFMBDCNmUAyDAQgAAEIQAACEIhMANMYWV3mBgEIQAACEIAABDIRwDRmAskwEIAABCAAAQhAIDIBTGNkdZkbBCAAAQhAAAIQyETg/wEk2CSYs4IVlQAAAABJRU5ErkJggg==;" parent="1" vertex="1">
          <mxGeometry x="330" y="90" width="653" height="260" as="geometry" />
        </mxCell>
        <mxCell id="X-5f3nUDe1U66WwUcWv5-2" value="" style="rounded=0;whiteSpace=wrap;html=1;" parent="1" vertex="1">
          <mxGeometry x="485" y="470" width="120" height="160" as="geometry" />
        </mxCell>
        <mxCell id="X-5f3nUDe1U66WwUcWv5-3" value="&lt;div&gt;Actor&lt;/div&gt;&lt;div&gt;&lt;br&gt;&lt;/div&gt;" style="shape=umlActor;verticalLabelPosition=bottom;verticalAlign=top;html=1;outlineConnect=0;" parent="1" vertex="1">
          <mxGeometry x="394" y="580" width="30" height="60" as="geometry" />
        </mxCell>
        <mxCell id="X-5f3nUDe1U66WwUcWv5-4" value="Start Timer" style="ellipse;whiteSpace=wrap;html=1;" parent="1" vertex="1">
          <mxGeometry x="500" y="480" width="90" height="60" as="geometry" />
        </mxCell>
        <mxCell id="X-5f3nUDe1U66WwUcWv5-5" value="Review Leaderboard" style="ellipse;whiteSpace=wrap;html=1;" parent="1" vertex="1">
          <mxGeometry x="500" y="550" width="90" height="60" as="geometry" />
        </mxCell>
        <mxCell id="X-5f3nUDe1U66WwUcWv5-6" value="" style="endArrow=none;html=1;rounded=0;entryX=0;entryY=0.5;entryDx=0;entryDy=0;" parent="1" target="X-5f3nUDe1U66WwUcWv5-5" edge="1">
          <mxGeometry width="50" height="50" relative="1" as="geometry">
            <mxPoint x="425" y="610" as="sourcePoint" />
            <mxPoint x="475" y="560" as="targetPoint" />
          </mxGeometry>
        </mxCell>
        <mxCell id="X-5f3nUDe1U66WwUcWv5-7" value="" style="endArrow=none;html=1;rounded=0;" parent="1" target="X-5f3nUDe1U66WwUcWv5-4" edge="1">
          <mxGeometry width="50" height="50" relative="1" as="geometry">
            <mxPoint x="424" y="590" as="sourcePoint" />
            <mxPoint x="474" y="540" as="targetPoint" />
          </mxGeometry>
        </mxCell>
      </root>
    </mxGraphModel>
  </diagram>
</mxfile>
